# xmcd
#
# Track frame offsets:
#	150
#	12584
#	27049
#	40415
#	59328
#	73593
#	90609
#	105691
#	122012
#	138156
#	153726
#	172521
#	188836
#	205441
#	223854
#	239213
#
# Disc length: 3371 seconds
#
# Revision: 1
# Processed by: cddbd v1.5.2PL0 Copyright (c) Steve Scherf et al.
# Submitted via: audiograbber 1.82.02
#
DISCID=e70d2910
DTITLE=Stefanie Heinzmann - Roots to Grow
DYEAR=2009
DGENRE=Soul
TTITLE0=Stefanie Heinzmann - ain't no mountain high enough
TTITLE1=Stefanie Heinzmann - bag it up
TTITLE2=Stefanie Heinzmann - bet that i'm better
TTITLE3=Stefanie Heinzmann - how does it feel
TTITLE4=Stefanie Heinzmann - how things change
TTITLE5=Stefanie Heinzmann - i don't know how to hurt you
TTITLE6=Stefanie Heinzmann - love fever
TTITLE7=Stefanie Heinzmann - no one (can ever change my min
TTITLE8=Stefanie Heinzmann - no substitute
TTITLE9=Stefanie Heinzmann - roots to grow
TTITLE10=Stefanie Heinzmann - since you've been gone (baby,
TTITLE11=Stefanie Heinzmann - stop
TTITLE12=Stefanie Heinzmann - there's a reason
TTITLE13=Stefanie Heinzmann - unbreakable
TTITLE14=Stefanie Heinzmann - wasting my time
TTITLE15=Stefanie Heinzmann - world on fire
EXTD=
EXTT0=
EXTT1=
EXTT2=
EXTT3=
EXTT4=
EXTT5=
EXTT6=
EXTT7=
EXTT8=
EXTT9=
EXTT10=
EXTT11=
EXTT12=
EXTT13=
EXTT14=
EXTT15=
PLAYORDER=
